<svg width="393" height="118" fill="none" xmlns="http://www.w3.org/2000/svg">
  <path d="M31.44 42.1 0 67.56V98a20 20 0 0 0 20 20h343a30 30 0 0 0 30-30V22.03c-1.43-.7-3.52-.93-4.4-.98-6.9-.42-10.85 3.6-16.35 7.34l-.07.05c-1.63 1.1-5.7 3.87-13.13 3.87-7.55 0-12.8-2.61-14.47-3.92L319.43 7.83C316.08 5.23 308.74 0 300.57 0c-8.18 0-14.68 5.22-17.61 7.83L166.63 95.46c-1.88 1.63-7.67 4.9-15.72 4.9s-13.83-3.27-15.72-4.9l-67.28-55.8c-2.3-1.96-9.05-5.88-17.6-5.88-8.56 0-16.15 5.55-18.87 8.32Z" fill="url(#a)" fill-opacity=".2"/>
  <defs>
    <linearGradient id="a" x1="196.5" y1="-8.81" x2="196.5" y2="118" gradientUnits="userSpaceOnUse">
      <stop stop-color="#fff"/>
      <stop offset="1" stop-color="#fff" stop-opacity="0"/>
    </linearGradient>
  </defs>
</svg>
